<svg width="416" height="350" viewBox="0 0 416 350" fill="none" xmlns="http://www.w3.org/2000/svg">
<g clip-path="url(#clip0_334_15885)">
<rect width="416" height="350" fill="#F2F5F8"/>
<g opacity="0.06">
<path d="M23.9727 -88V437.5" stroke="#2B303B"/>
<path d="M69.9839 -88V437.5" stroke="#2B303B"/>
<path d="M115.996 -88V437.5" stroke="#2B303B"/>
<path d="M162.007 -88V437.5" stroke="#2B303B"/>
<path d="M208.019 -88V437.5" stroke="#2B303B"/>
<path d="M254.03 -88V437.5" stroke="#2B303B"/>
<path d="M300.042 -88V437.5" stroke="#2B303B"/>
<path d="M346.053 -88V437.5" stroke="#2B303B"/>
<path d="M392.064 -88V437.5" stroke="#2B303B"/>
<path d="M471 27L-54.5 27" stroke="#2B303B"/>
<path d="M471 64L-54.5 64" stroke="#2B303B"/>
<path d="M471 101L-54.5 101" stroke="#2B303B"/>
<path d="M471 138L-54.5 138" stroke="#2B303B"/>
<path d="M471 175L-54.5 175" stroke="#2B303B"/>
<path d="M471 212L-54.5 212" stroke="#2B303B"/>
<path d="M471 249L-54.5 249" stroke="#2B303B"/>
<path d="M471 286L-54.5 286" stroke="#2B303B"/>
<path d="M471 323L-54.5 323" stroke="#2B303B"/>
</g>
<rect x="115" y="137" width="186" height="76" fill="#F2F5F8"/>
<path d="M133.752 187V164.28H147.832V167.928H137.72V173.848H147.448V177.368H137.72V183.352H148.088V187H133.752ZM159.788 187.512C157.334 187.512 155.414 186.787 154.028 185.336C152.662 183.864 151.98 181.795 151.98 179.128V164.28H155.948V179.384C155.948 180.835 156.268 181.955 156.908 182.744C157.569 183.533 158.529 183.928 159.788 183.928C161.046 183.928 161.996 183.533 162.636 182.744C163.297 181.955 163.628 180.835 163.628 179.384V164.28H167.596V179.128C167.596 181.795 166.902 183.864 165.516 185.336C164.15 186.787 162.241 187.512 159.788 187.512ZM171.999 187V164.28H179.199C180.756 164.28 182.132 164.579 183.327 165.176C184.522 165.773 185.45 166.605 186.111 167.672C186.772 168.739 187.103 170.008 187.103 171.48C187.103 172.931 186.772 174.189 186.111 175.256C185.45 176.323 184.522 177.155 183.327 177.752C182.132 178.328 180.756 178.616 179.199 178.616H175.967V187H171.999ZM175.967 175H178.783C180.212 175 181.268 174.701 181.951 174.104C182.655 173.485 183.007 172.611 183.007 171.48C183.007 170.307 182.655 169.421 181.951 168.824C181.268 168.227 180.212 167.928 178.783 167.928H175.967V175ZM190.227 187V164.28H194.195V175.128L192.595 173.752H203.731L202.131 175.128V164.28H206.099V187H202.131V176.024L203.731 177.4H192.595L194.195 176.024V187H190.227ZM217.35 187.512C215.537 187.512 213.99 187.053 212.71 186.136C211.451 185.219 210.491 183.875 209.83 182.104C209.169 180.333 208.838 178.189 208.838 175.672C208.838 173.112 209.169 170.947 209.83 169.176C210.491 167.405 211.451 166.061 212.71 165.144C213.99 164.227 215.537 163.768 217.35 163.768C219.163 163.768 220.699 164.227 221.958 165.144C223.238 166.061 224.209 167.405 224.87 169.176C225.531 170.947 225.862 173.112 225.862 175.672C225.862 178.189 225.531 180.333 224.87 182.104C224.209 183.875 223.238 185.219 221.958 186.136C220.699 187.053 219.163 187.512 217.35 187.512ZM217.35 183.928C218.31 183.928 219.121 183.629 219.782 183.032C220.443 182.435 220.934 181.528 221.254 180.312C221.595 179.075 221.766 177.528 221.766 175.672C221.766 173.816 221.595 172.269 221.254 171.032C220.934 169.795 220.443 168.877 219.782 168.28C219.121 167.661 218.31 167.352 217.35 167.352C216.39 167.352 215.579 167.661 214.918 168.28C214.257 168.877 213.755 169.795 213.414 171.032C213.094 172.269 212.934 173.816 212.934 175.672C212.934 177.528 213.094 179.075 213.414 180.312C213.755 181.528 214.257 182.435 214.918 183.032C215.579 183.629 216.39 183.928 217.35 183.928ZM228.986 187V164.28H236.186C238.618 164.28 240.527 164.888 241.914 166.104C243.3 167.32 243.994 168.984 243.994 171.096C243.994 172.184 243.748 173.144 243.258 173.976C242.788 174.808 242.159 175.469 241.37 175.96C240.58 176.429 239.716 176.696 238.778 176.76L238.65 176.344C240.292 176.408 241.519 176.771 242.33 177.432C243.14 178.072 243.61 179.128 243.738 180.6L244.282 187H240.314L239.834 181.528C239.77 180.717 239.61 180.088 239.354 179.64C239.119 179.192 238.746 178.883 238.234 178.712C237.743 178.541 237.06 178.456 236.186 178.456H232.954V187H228.986ZM232.954 174.808H236.09C237.327 174.808 238.266 174.509 238.906 173.912C239.567 173.315 239.898 172.461 239.898 171.352C239.898 170.243 239.567 169.4 238.906 168.824C238.266 168.227 237.327 167.928 236.09 167.928H232.954V174.808ZM248.557 187V183.352H253.741V167.928H248.557V164.28H262.893V167.928H257.709V183.352H262.893V187H248.557ZM265.985 187L272.449 164.28H277.377L283.841 187H279.777L274.913 168.76L270.049 187H265.985ZM269.953 181.624L271.041 178.072H278.785L279.873 181.624H269.953Z" fill="#2B303B"/>
</g>
<defs>
<clipPath id="clip0_334_15885">
<rect width="416" height="350" fill="white"/>
</clipPath>
</defs>
</svg>
