<svg width="416" height="350" viewBox="0 0 416 350" fill="none" xmlns="http://www.w3.org/2000/svg">
<g clip-path="url(#clip0_534_8636)">
<rect width="416" height="350" rx="24" fill="#F2F5F8"/>
<g opacity="0.06">
<path d="M23.9727 -88V437.5" stroke="#2B303B"/>
<path d="M69.9839 -88V437.5" stroke="#2B303B"/>
<path d="M115.996 -88V437.5" stroke="#2B303B"/>
<path d="M162.007 -88V437.5" stroke="#2B303B"/>
<path d="M208.019 -88V437.5" stroke="#2B303B"/>
<path d="M254.03 -88V437.5" stroke="#2B303B"/>
<path d="M300.042 -88V437.5" stroke="#2B303B"/>
<path d="M346.053 -88V437.5" stroke="#2B303B"/>
<path d="M392.064 -88V437.5" stroke="#2B303B"/>
<path d="M471 27L-54.5 27" stroke="#2B303B"/>
<path d="M471 64L-54.5 64" stroke="#2B303B"/>
<path d="M471 101L-54.5 101" stroke="#2B303B"/>
<path d="M471 138L-54.5 138" stroke="#2B303B"/>
<path d="M471 175L-54.5 175" stroke="#2B303B"/>
<path d="M471 212L-54.5 212" stroke="#2B303B"/>
<path d="M471 249L-54.5 249" stroke="#2B303B"/>
<path d="M471 286L-54.5 286" stroke="#2B303B"/>
<path d="M471 323L-54.5 323" stroke="#2B303B"/>
</g>
<rect x="115" y="137" width="186" height="76" fill="#F2F5F8"/>
<path d="M124.252 187V164.28H138.332V167.928H128.22V173.848H137.948V177.368H128.22V183.352H138.588V187H124.252ZM141.968 187L147.664 175.576L142.064 164.28H146.448L150.32 172.632L154.192 164.28H158.512L152.912 175.608L158.608 187H154.224L150.256 178.52L146.256 187H141.968ZM169.603 187.512C167.747 187.512 166.179 187.032 164.899 186.072C163.619 185.112 162.638 183.747 161.955 181.976C161.294 180.205 160.963 178.104 160.963 175.672C160.963 173.219 161.294 171.107 161.955 169.336C162.638 167.565 163.619 166.2 164.899 165.24C166.179 164.259 167.747 163.768 169.603 163.768C171.736 163.768 173.518 164.472 174.947 165.88C176.376 167.288 177.294 169.283 177.699 171.864L173.635 172.056C173.358 170.52 172.856 169.357 172.131 168.568C171.427 167.757 170.584 167.352 169.603 167.352C168.6 167.352 167.758 167.683 167.075 168.344C166.414 168.984 165.912 169.923 165.571 171.16C165.23 172.397 165.059 173.901 165.059 175.672C165.059 177.421 165.23 178.915 165.571 180.152C165.912 181.389 166.414 182.328 167.075 182.968C167.758 183.608 168.6 183.928 169.603 183.928C170.627 183.928 171.512 183.501 172.259 182.648C173.006 181.773 173.507 180.504 173.763 178.84L177.827 179C177.443 181.688 176.526 183.779 175.075 185.272C173.646 186.765 171.822 187.512 169.603 187.512ZM182.135 187V164.28H186.103V185.72L183.383 183.352H196.471V187H182.135ZM207.85 187.512C205.397 187.512 203.477 186.787 202.09 185.336C200.725 183.864 200.042 181.795 200.042 179.128V164.28H204.01V179.384C204.01 180.835 204.33 181.955 204.97 182.744C205.631 183.533 206.591 183.928 207.85 183.928C209.109 183.928 210.058 183.533 210.698 182.744C211.359 181.955 211.69 180.835 211.69 179.384V164.28H215.658V179.128C215.658 181.795 214.965 183.864 213.578 185.336C212.213 186.787 210.303 187.512 207.85 187.512ZM227.262 187.512C225.598 187.512 224.147 187.181 222.91 186.52C221.694 185.859 220.734 184.931 220.03 183.736C219.326 182.52 218.91 181.091 218.782 179.448L222.814 179.224C222.963 180.269 223.23 181.144 223.614 181.848C224.019 182.531 224.542 183.053 225.182 183.416C225.843 183.757 226.6 183.928 227.454 183.928C228.264 183.928 228.947 183.821 229.502 183.608C230.078 183.395 230.515 183.075 230.814 182.648C231.112 182.221 231.262 181.709 231.262 181.112C231.262 180.472 231.112 179.917 230.814 179.448C230.515 178.979 229.982 178.541 229.214 178.136C228.446 177.731 227.347 177.336 225.918 176.952C224.382 176.547 223.123 176.077 222.141 175.544C221.16 175.011 220.435 174.349 219.966 173.56C219.496 172.749 219.262 171.736 219.262 170.52C219.262 169.155 219.56 167.971 220.158 166.968C220.776 165.944 221.662 165.155 222.814 164.6C223.987 164.045 225.384 163.768 227.006 163.768C228.606 163.768 229.971 164.077 231.102 164.696C232.232 165.293 233.118 166.157 233.758 167.288C234.419 168.397 234.824 169.72 234.974 171.256L230.91 171.448C230.803 170.616 230.579 169.901 230.238 169.304C229.918 168.685 229.47 168.205 228.894 167.864C228.339 167.523 227.656 167.352 226.845 167.352C225.758 167.352 224.894 167.629 224.254 168.184C223.614 168.717 223.294 169.421 223.294 170.296C223.294 170.915 223.432 171.427 223.71 171.832C224.008 172.237 224.51 172.6 225.214 172.92C225.918 173.24 226.91 173.56 228.19 173.88C229.96 174.349 231.358 174.904 232.382 175.544C233.427 176.184 234.174 176.952 234.622 177.848C235.07 178.744 235.294 179.8 235.294 181.016C235.294 182.317 234.963 183.459 234.302 184.44C233.64 185.421 232.712 186.179 231.518 186.712C230.323 187.245 228.904 187.512 227.262 187.512ZM239.057 187V183.352H244.241V167.928H239.057V164.28H253.393V167.928H248.209V183.352H253.393V187H239.057ZM263.269 187L256.581 164.28H260.773L266.021 183.352H264.805L270.053 164.28H274.245L267.557 187H263.269ZM277.752 187V164.28H291.832V167.928H281.72V173.848H291.448V177.368H281.72V183.352H292.088V187H277.752Z" fill="#2B303B"/>
</g>
<defs>
<clipPath id="clip0_534_8636">
<rect width="416" height="350" rx="24" fill="white"/>
</clipPath>
</defs>
</svg>
