<svg width="416" height="350" viewBox="0 0 416 350" fill="none" xmlns="http://www.w3.org/2000/svg">
<g clip-path="url(#clip0_333_15864)">
<rect width="416" height="350" fill="#F2F5F8"/>
<g opacity="0.06">
<path d="M23.9727 -88V437.5" stroke="#2B303B"/>
<path d="M69.9839 -88V437.5" stroke="#2B303B"/>
<path d="M115.996 -88V437.5" stroke="#2B303B"/>
<path d="M162.007 -88V437.5" stroke="#2B303B"/>
<path d="M208.019 -88V437.5" stroke="#2B303B"/>
<path d="M254.03 -88V437.5" stroke="#2B303B"/>
<path d="M300.042 -88V437.5" stroke="#2B303B"/>
<path d="M346.053 -88V437.5" stroke="#2B303B"/>
<path d="M392.064 -88V437.5" stroke="#2B303B"/>
<path d="M471 27L-54.5 27" stroke="#2B303B"/>
<path d="M471 64L-54.5 64" stroke="#2B303B"/>
<path d="M471 101L-54.5 101" stroke="#2B303B"/>
<path d="M471 138L-54.5 138" stroke="#2B303B"/>
<path d="M471 175L-54.5 175" stroke="#2B303B"/>
<path d="M471 212L-54.5 212" stroke="#2B303B"/>
<path d="M471 249L-54.5 249" stroke="#2B303B"/>
<path d="M471 286L-54.5 286" stroke="#2B303B"/>
<path d="M471 323L-54.5 323" stroke="#2B303B"/>
</g>
<rect x="115" y="137" width="186" height="76" fill="#F2F5F8"/>
<path d="M159.6 187.512C157.936 187.512 156.464 187.064 155.184 186.168C153.904 185.251 152.901 183.907 152.176 182.136C151.451 180.365 151.088 178.211 151.088 175.672C151.088 173.219 151.429 171.107 152.112 169.336C152.795 167.565 153.776 166.2 155.056 165.24C156.357 164.259 157.904 163.768 159.696 163.768C161.147 163.768 162.427 164.077 163.536 164.696C164.645 165.315 165.563 166.211 166.288 167.384C167.035 168.536 167.568 169.912 167.888 171.512L163.792 171.768C163.515 170.381 163.035 169.304 162.352 168.536C161.669 167.768 160.795 167.384 159.728 167.384C158.768 167.384 157.947 167.704 157.264 168.344C156.581 168.984 156.059 169.923 155.696 171.16C155.355 172.397 155.184 173.901 155.184 175.672C155.184 177.421 155.365 178.915 155.728 180.152C156.112 181.368 156.656 182.296 157.36 182.936C158.064 183.576 158.928 183.896 159.952 183.896C160.805 183.896 161.541 183.683 162.16 183.256C162.779 182.808 163.259 182.179 163.6 181.368C163.963 180.557 164.165 179.608 164.208 178.52H159.664V175.288H167.856V187H164.976L164.784 181.944L165.744 181.656C165.552 182.723 165.2 183.704 164.688 184.6C164.197 185.496 163.525 186.211 162.672 186.744C161.84 187.256 160.816 187.512 159.6 187.512ZM178.788 187.512C176.974 187.512 175.428 187.053 174.148 186.136C172.889 185.219 171.929 183.875 171.268 182.104C170.606 180.333 170.276 178.189 170.276 175.672C170.276 173.112 170.606 170.947 171.268 169.176C171.929 167.405 172.889 166.061 174.148 165.144C175.428 164.227 176.974 163.768 178.788 163.768C180.601 163.768 182.137 164.227 183.396 165.144C184.676 166.061 185.646 167.405 186.308 169.176C186.969 170.947 187.3 173.112 187.3 175.672C187.3 178.189 186.969 180.333 186.308 182.104C185.646 183.875 184.676 185.219 183.396 186.136C182.137 187.053 180.601 187.512 178.788 187.512ZM178.788 183.928C179.748 183.928 180.558 183.629 181.22 183.032C181.881 182.435 182.372 181.528 182.692 180.312C183.033 179.075 183.204 177.528 183.204 175.672C183.204 173.816 183.033 172.269 182.692 171.032C182.372 169.795 181.881 168.877 181.22 168.28C180.558 167.661 179.748 167.352 178.788 167.352C177.828 167.352 177.017 167.661 176.356 168.28C175.694 168.877 175.193 169.795 174.852 171.032C174.532 172.269 174.372 173.816 174.372 175.672C174.372 177.528 174.532 179.075 174.852 180.312C175.193 181.528 175.694 182.435 176.356 183.032C177.017 183.629 177.828 183.928 178.788 183.928ZM191.447 187V164.28H195.415V185.72L192.695 183.352H205.783V187H191.447ZM217.163 187.512C215.349 187.512 213.803 187.053 212.523 186.136C211.264 185.219 210.304 183.875 209.643 182.104C208.981 180.333 208.651 178.189 208.651 175.672C208.651 173.112 208.981 170.947 209.643 169.176C210.304 167.405 211.264 166.061 212.523 165.144C213.803 164.227 215.349 163.768 217.163 163.768C218.976 163.768 220.512 164.227 221.771 165.144C223.051 166.061 224.021 167.405 224.683 169.176C225.344 170.947 225.675 173.112 225.675 175.672C225.675 178.189 225.344 180.333 224.683 182.104C224.021 183.875 223.051 185.219 221.771 186.136C220.512 187.053 218.976 187.512 217.163 187.512ZM217.163 183.928C218.123 183.928 218.933 183.629 219.595 183.032C220.256 182.435 220.747 181.528 221.067 180.312C221.408 179.075 221.579 177.528 221.579 175.672C221.579 173.816 221.408 172.269 221.067 171.032C220.747 169.795 220.256 168.877 219.595 168.28C218.933 167.661 218.123 167.352 217.163 167.352C216.203 167.352 215.392 167.661 214.731 168.28C214.069 168.877 213.568 169.795 213.227 171.032C212.907 172.269 212.747 173.816 212.747 175.672C212.747 177.528 212.907 179.075 213.227 180.312C213.568 181.528 214.069 182.435 214.731 183.032C215.392 183.629 216.203 183.928 217.163 183.928ZM229.182 187V164.28H235.966C238.483 164.28 240.403 164.813 241.726 165.88C243.049 166.925 243.71 168.44 243.71 170.424C243.71 171.341 243.497 172.173 243.07 172.92C242.665 173.645 242.046 174.232 241.214 174.68C240.403 175.107 239.401 175.352 238.206 175.416V175.192C239.657 175.235 240.851 175.491 241.79 175.96C242.75 176.429 243.465 177.08 243.934 177.912C244.425 178.723 244.67 179.661 244.67 180.728C244.67 182.755 243.977 184.312 242.59 185.4C241.203 186.467 239.241 187 236.702 187H229.182ZM233.118 183.416H236.702C238.025 183.395 238.995 183.128 239.614 182.616C240.254 182.083 240.574 181.347 240.574 180.408C240.574 179.405 240.243 178.627 239.582 178.072C238.942 177.517 237.982 177.24 236.702 177.24H233.118V183.416ZM233.118 173.72H235.966C237.225 173.72 238.142 173.464 238.718 172.952C239.315 172.44 239.614 171.715 239.614 170.776C239.614 169.837 239.315 169.123 238.718 168.632C238.142 168.12 237.225 167.864 235.966 167.864H233.118V173.72ZM248.69 187V164.28H262.77V167.928H252.658V173.848H262.385V177.368H252.658V183.352H263.026V187H248.69Z" fill="#2B303B"/>
</g>
<defs>
<clipPath id="clip0_333_15864">
<rect width="416" height="350" fill="white"/>
</clipPath>
</defs>
</svg>
