<svg width="416" height="350" viewBox="0 0 416 350" fill="none" xmlns="http://www.w3.org/2000/svg">
<g clip-path="url(#clip0_333_15787)">
<rect width="416" height="350" fill="#F2F5F8"/>
<g opacity="0.06">
<path d="M23.9727 -88V437.5" stroke="#2B303B"/>
<path d="M69.9839 -88V437.5" stroke="#2B303B"/>
<path d="M115.996 -88V437.5" stroke="#2B303B"/>
<path d="M162.007 -88V437.5" stroke="#2B303B"/>
<path d="M208.019 -88V437.5" stroke="#2B303B"/>
<path d="M254.03 -88V437.5" stroke="#2B303B"/>
<path d="M300.042 -88V437.5" stroke="#2B303B"/>
<path d="M346.053 -88V437.5" stroke="#2B303B"/>
<path d="M392.064 -88V437.5" stroke="#2B303B"/>
<path d="M471 27L-54.5 27" stroke="#2B303B"/>
<path d="M471 64L-54.5 64" stroke="#2B303B"/>
<path d="M471 101L-54.5 101" stroke="#2B303B"/>
<path d="M471 138L-54.5 138" stroke="#2B303B"/>
<path d="M471 175L-54.5 175" stroke="#2B303B"/>
<path d="M471 212L-54.5 212" stroke="#2B303B"/>
<path d="M471 249L-54.5 249" stroke="#2B303B"/>
<path d="M471 286L-54.5 286" stroke="#2B303B"/>
<path d="M471 323L-54.5 323" stroke="#2B303B"/>
</g>
<rect x="115" y="137" width="186" height="76" fill="#F2F5F8"/>
<path d="M145.812 180.504V174.712L153.62 164.28H158.356L145.812 180.504ZM142.164 187V164.28H146.132V187H142.164ZM154.068 187L147.54 176.12L150.228 173.528L158.548 187H154.068ZM169.288 187.512C166.834 187.512 164.914 186.787 163.528 185.336C162.162 183.864 161.48 181.795 161.48 179.128V164.28H165.448V179.384C165.448 180.835 165.768 181.955 166.408 182.744C167.069 183.533 168.029 183.928 169.288 183.928C170.546 183.928 171.496 183.533 172.136 182.744C172.797 181.955 173.128 180.835 173.128 179.384V164.28H177.096V179.128C177.096 181.795 176.402 183.864 175.016 185.336C173.65 186.787 171.741 187.512 169.288 187.512ZM181.947 187V164.28H185.915V185.72L183.195 183.352H196.283V187H181.947ZM200.495 187V183.352H205.679V167.928H200.495V164.28H214.831V167.928H209.647V183.352H214.831V187H200.495ZM219.874 187V164.28H227.074C228.631 164.28 230.007 164.579 231.202 165.176C232.397 165.773 233.325 166.605 233.986 167.672C234.647 168.739 234.978 170.008 234.978 171.48C234.978 172.931 234.647 174.189 233.986 175.256C233.325 176.323 232.397 177.155 231.202 177.752C230.007 178.328 228.631 178.616 227.074 178.616H223.842V187H219.874ZM223.842 175H226.658C228.087 175 229.143 174.701 229.826 174.104C230.53 173.485 230.882 172.611 230.882 171.48C230.882 170.307 230.53 169.421 229.826 168.824C229.143 168.227 228.087 167.928 226.658 167.928H223.842V175ZM237.11 187L243.574 164.28H248.502L254.966 187H250.902L246.038 168.76L241.174 187H237.11ZM241.078 181.624L242.166 178.072H249.91L250.998 181.624H241.078ZM258.697 187V164.28H262.665V185.72L259.945 183.352H273.033V187H258.697Z" fill="#2B303B"/>
</g>
<defs>
<clipPath id="clip0_333_15787">
<rect width="416" height="350" fill="white"/>
</clipPath>
</defs>
</svg>
