<svg width="416" height="350" viewBox="0 0 416 350" fill="none" xmlns="http://www.w3.org/2000/svg">
<g clip-path="url(#clip0_333_15791)">
<rect width="416" height="350" fill="#F2F5F8"/>
<g opacity="0.06">
<path d="M23.9727 -88V437.5" stroke="#2B303B"/>
<path d="M69.9839 -88V437.5" stroke="#2B303B"/>
<path d="M115.996 -88V437.5" stroke="#2B303B"/>
<path d="M162.007 -88V437.5" stroke="#2B303B"/>
<path d="M208.019 -88V437.5" stroke="#2B303B"/>
<path d="M254.03 -88V437.5" stroke="#2B303B"/>
<path d="M300.042 -88V437.5" stroke="#2B303B"/>
<path d="M346.053 -88V437.5" stroke="#2B303B"/>
<path d="M392.064 -88V437.5" stroke="#2B303B"/>
<path d="M471 27L-54.5 27" stroke="#2B303B"/>
<path d="M471 64L-54.5 64" stroke="#2B303B"/>
<path d="M471 101L-54.5 101" stroke="#2B303B"/>
<path d="M471 138L-54.5 138" stroke="#2B303B"/>
<path d="M471 175L-54.5 175" stroke="#2B303B"/>
<path d="M471 212L-54.5 212" stroke="#2B303B"/>
<path d="M471 249L-54.5 249" stroke="#2B303B"/>
<path d="M471 286L-54.5 286" stroke="#2B303B"/>
<path d="M471 323L-54.5 323" stroke="#2B303B"/>
</g>
<rect x="69" y="137" width="278" height="76" fill="#F2F5F8"/>
<path d="M120.288 184.056L116.704 169.144L117.184 169.08V187H113.472V164.28H118.272L122.208 180.088H120.992L124.928 164.28H129.728V187H126.016V169.08L126.496 169.144L122.912 184.056H120.288ZM133.94 187V164.28H148.02V167.928H137.908V173.848H147.635V177.368H137.908V183.352H148.276V187H133.94ZM152.807 187V164.28H158.471C160.54 164.28 162.322 164.728 163.815 165.624C165.33 166.499 166.482 167.789 167.271 169.496C168.082 171.181 168.487 173.24 168.487 175.672C168.487 178.104 168.082 180.163 167.271 181.848C166.482 183.533 165.33 184.813 163.815 185.688C162.322 186.563 160.54 187 158.471 187H152.807ZM156.743 183.352H158.471C160.37 183.352 161.831 182.712 162.855 181.432C163.879 180.152 164.391 178.232 164.391 175.672C164.391 173.091 163.879 171.16 162.855 169.88C161.831 168.579 160.37 167.928 158.471 167.928H156.743V183.352ZM171.995 187V183.352H177.179V167.928H171.995V164.28H186.331V167.928H181.147V183.352H186.331V187H171.995ZM191.182 187V164.28H197.966C200.483 164.28 202.403 164.813 203.726 165.88C205.049 166.925 205.71 168.44 205.71 170.424C205.71 171.341 205.497 172.173 205.07 172.92C204.665 173.645 204.046 174.232 203.214 174.68C202.403 175.107 201.401 175.352 200.206 175.416V175.192C201.657 175.235 202.851 175.491 203.79 175.96C204.75 176.429 205.465 177.08 205.934 177.912C206.425 178.723 206.67 179.661 206.67 180.728C206.67 182.755 205.977 184.312 204.59 185.4C203.203 186.467 201.241 187 198.702 187H191.182ZM195.118 183.416H198.702C200.025 183.395 200.995 183.128 201.614 182.616C202.254 182.083 202.574 181.347 202.574 180.408C202.574 179.405 202.243 178.627 201.582 178.072C200.942 177.517 199.982 177.24 198.702 177.24H195.118V183.416ZM195.118 173.72H197.966C199.225 173.72 200.142 173.464 200.718 172.952C201.315 172.44 201.614 171.715 201.614 170.776C201.614 169.837 201.315 169.123 200.718 168.632C200.142 168.12 199.225 167.864 197.966 167.864H195.118V173.72ZM209.986 187V164.28H217.186C219.618 164.28 221.527 164.888 222.914 166.104C224.3 167.32 224.994 168.984 224.994 171.096C224.994 172.184 224.748 173.144 224.258 173.976C223.788 174.808 223.159 175.469 222.37 175.96C221.58 176.429 220.716 176.696 219.778 176.76L219.65 176.344C221.292 176.408 222.519 176.771 223.33 177.432C224.14 178.072 224.61 179.128 224.738 180.6L225.282 187H221.314L220.834 181.528C220.77 180.717 220.61 180.088 220.354 179.64C220.119 179.192 219.746 178.883 219.234 178.712C218.743 178.541 218.06 178.456 217.186 178.456H213.954V187H209.986ZM213.954 174.808H217.09C218.327 174.808 219.266 174.509 219.906 173.912C220.567 173.315 220.898 172.461 220.898 171.352C220.898 170.243 220.567 169.4 219.906 168.824C219.266 168.227 218.327 167.928 217.09 167.928H213.954V174.808ZM229.557 187V183.352H234.741V167.928H229.557V164.28H243.893V167.928H238.709V183.352H243.893V187H229.557ZM248.745 187V164.28H254.409C256.478 164.28 258.259 164.728 259.753 165.624C261.267 166.499 262.419 167.789 263.208 169.496C264.019 171.181 264.425 173.24 264.425 175.672C264.425 178.104 264.019 180.163 263.208 181.848C262.419 183.533 261.267 184.813 259.753 185.688C258.259 186.563 256.478 187 254.409 187H248.745ZM252.681 183.352H254.409C256.307 183.352 257.769 182.712 258.793 181.432C259.817 180.152 260.329 178.232 260.329 175.672C260.329 173.091 259.817 171.16 258.793 169.88C257.769 168.579 256.307 167.928 254.409 167.928H252.681V183.352ZM275.1 187.512C273.436 187.512 271.964 187.064 270.684 186.168C269.404 185.251 268.401 183.907 267.676 182.136C266.951 180.365 266.588 178.211 266.588 175.672C266.588 173.219 266.929 171.107 267.612 169.336C268.295 167.565 269.276 166.2 270.556 165.24C271.857 164.259 273.404 163.768 275.196 163.768C276.647 163.768 277.927 164.077 279.036 164.696C280.145 165.315 281.063 166.211 281.788 167.384C282.535 168.536 283.068 169.912 283.388 171.512L279.292 171.768C279.015 170.381 278.535 169.304 277.852 168.536C277.169 167.768 276.295 167.384 275.228 167.384C274.268 167.384 273.447 167.704 272.764 168.344C272.081 168.984 271.559 169.923 271.196 171.16C270.855 172.397 270.684 173.901 270.684 175.672C270.684 177.421 270.865 178.915 271.228 180.152C271.612 181.368 272.156 182.296 272.86 182.936C273.564 183.576 274.428 183.896 275.452 183.896C276.305 183.896 277.041 183.683 277.66 183.256C278.279 182.808 278.759 182.179 279.1 181.368C279.463 180.557 279.665 179.608 279.708 178.52H275.164V175.288H283.356V187H280.476L280.284 181.944L281.244 181.656C281.052 182.723 280.7 183.704 280.188 184.6C279.697 185.496 279.025 186.211 278.172 186.744C277.34 187.256 276.316 187.512 275.1 187.512ZM287.44 187V164.28H301.52V167.928H291.408V173.848H301.135V177.368H291.408V183.352H301.776V187H287.44Z" fill="#2B303B"/>
</g>
<defs>
<clipPath id="clip0_333_15791">
<rect width="416" height="350" fill="white"/>
</clipPath>
</defs>
</svg>
