<svg width="416" height="350" viewBox="0 0 416 350" fill="none" xmlns="http://www.w3.org/2000/svg">
<g clip-path="url(#clip0_333_15863)">
<rect width="416" height="350" fill="#F2F5F8"/>
<g opacity="0.06">
<path d="M23.9727 -88V437.5" stroke="#2B303B"/>
<path d="M69.9839 -88V437.5" stroke="#2B303B"/>
<path d="M115.996 -88V437.5" stroke="#2B303B"/>
<path d="M162.007 -88V437.5" stroke="#2B303B"/>
<path d="M208.019 -88V437.5" stroke="#2B303B"/>
<path d="M254.03 -88V437.5" stroke="#2B303B"/>
<path d="M300.042 -88V437.5" stroke="#2B303B"/>
<path d="M346.053 -88V437.5" stroke="#2B303B"/>
<path d="M392.064 -88V437.5" stroke="#2B303B"/>
<path d="M471 27L-54.5 27" stroke="#2B303B"/>
<path d="M471 64L-54.5 64" stroke="#2B303B"/>
<path d="M471 101L-54.5 101" stroke="#2B303B"/>
<path d="M471 138L-54.5 138" stroke="#2B303B"/>
<path d="M471 175L-54.5 175" stroke="#2B303B"/>
<path d="M471 212L-54.5 212" stroke="#2B303B"/>
<path d="M471 249L-54.5 249" stroke="#2B303B"/>
<path d="M471 286L-54.5 286" stroke="#2B303B"/>
<path d="M471 323L-54.5 323" stroke="#2B303B"/>
</g>
<rect x="115" y="137" width="186" height="76" fill="#F2F5F8"/>
<path d="M148.788 184.056L145.204 169.144L145.684 169.08V187H141.972V164.28H146.772L150.708 180.088H149.492L153.428 164.28H158.228V187H154.516V169.08L154.996 169.144L151.412 184.056H148.788ZM169.288 187.512C167.474 187.512 165.928 187.053 164.648 186.136C163.389 185.219 162.429 183.875 161.768 182.104C161.106 180.333 160.776 178.189 160.776 175.672C160.776 173.112 161.106 170.947 161.768 169.176C162.429 167.405 163.389 166.061 164.648 165.144C165.928 164.227 167.474 163.768 169.288 163.768C171.101 163.768 172.637 164.227 173.896 165.144C175.176 166.061 176.146 167.405 176.808 169.176C177.469 170.947 177.8 173.112 177.8 175.672C177.8 178.189 177.469 180.333 176.808 182.104C176.146 183.875 175.176 185.219 173.896 186.136C172.637 187.053 171.101 187.512 169.288 187.512ZM169.288 183.928C170.248 183.928 171.058 183.629 171.72 183.032C172.381 182.435 172.872 181.528 173.192 180.312C173.533 179.075 173.704 177.528 173.704 175.672C173.704 173.816 173.533 172.269 173.192 171.032C172.872 169.795 172.381 168.877 171.72 168.28C171.058 167.661 170.248 167.352 169.288 167.352C168.328 167.352 167.517 167.661 166.856 168.28C166.194 168.877 165.693 169.795 165.352 171.032C165.032 172.269 164.872 173.816 164.872 175.672C164.872 177.528 165.032 179.075 165.352 180.312C165.693 181.528 166.194 182.435 166.856 183.032C167.517 183.629 168.328 183.928 169.288 183.928ZM181.307 187V164.28H186.971C189.04 164.28 190.822 164.728 192.315 165.624C193.83 166.499 194.982 167.789 195.771 169.496C196.582 171.181 196.987 173.24 196.987 175.672C196.987 178.104 196.582 180.163 195.771 181.848C194.982 183.533 193.83 184.813 192.315 185.688C190.822 186.563 189.04 187 186.971 187H181.307ZM185.243 183.352H186.971C188.87 183.352 190.331 182.712 191.355 181.432C192.379 180.152 192.891 178.232 192.891 175.672C192.891 173.091 192.379 171.16 191.355 169.88C190.331 168.579 188.87 167.928 186.971 167.928H185.243V183.352ZM200.495 187V183.352H205.679V167.928H200.495V164.28H214.831V167.928H209.647V183.352H214.831V187H200.495ZM225.538 184.056L221.954 169.144L222.434 169.08V187H218.722V164.28H223.522L227.458 180.088H226.242L230.178 164.28H234.978V187H231.266V169.08L231.746 169.144L228.162 184.056H225.538ZM237.11 187L243.574 164.28H248.502L254.966 187H250.902L246.038 168.76L241.174 187H237.11ZM241.078 181.624L242.166 178.072H249.91L250.998 181.624H241.078ZM258.697 187V164.28H262.665V185.72L259.945 183.352H273.033V187H258.697Z" fill="#2B303B"/>
</g>
<defs>
<clipPath id="clip0_333_15863">
<rect width="416" height="350" fill="white"/>
</clipPath>
</defs>
</svg>
