<svg width="416" height="350" viewBox="0 0 416 350" fill="none" xmlns="http://www.w3.org/2000/svg">
<g clip-path="url(#clip0_333_13017)">
<rect width="416" height="350" fill="#F2F5F8"/>
<g opacity="0.06">
<path d="M23.4727 -88V437.5" stroke="#2B303B"/>
<path d="M69.4839 -88V437.5" stroke="#2B303B"/>
<path d="M115.496 -88V437.5" stroke="#2B303B"/>
<path d="M161.507 -88V437.5" stroke="#2B303B"/>
<path d="M207.519 -88V437.5" stroke="#2B303B"/>
<path d="M253.53 -88V437.5" stroke="#2B303B"/>
<path d="M299.542 -88V437.5" stroke="#2B303B"/>
<path d="M345.553 -88V437.5" stroke="#2B303B"/>
<path d="M391.564 -88V437.5" stroke="#2B303B"/>
<path d="M470.5 27L-55 27" stroke="#2B303B"/>
<path d="M470.5 64L-55 64" stroke="#2B303B"/>
<path d="M470.5 101L-55 101" stroke="#2B303B"/>
<path d="M470.5 138L-55 138" stroke="#2B303B"/>
<path d="M470.5 175L-55 175" stroke="#2B303B"/>
<path d="M470.5 212L-55 212" stroke="#2B303B"/>
<path d="M470.5 249L-55 249" stroke="#2B303B"/>
<path d="M470.5 286L-55 286" stroke="#2B303B"/>
<path d="M470.5 323L-55 323" stroke="#2B303B"/>
</g>
<rect x="115" y="137" width="186" height="76" fill="#F2F5F8"/>
<path d="M162.112 187V164.28H166.368L173.248 180.6V164.28H177.088V187H172.832L165.952 170.68V187H162.112ZM188.788 187.512C186.974 187.512 185.428 187.053 184.148 186.136C182.889 185.219 181.929 183.875 181.268 182.104C180.606 180.333 180.276 178.189 180.276 175.672C180.276 173.112 180.606 170.947 181.268 169.176C181.929 167.405 182.889 166.061 184.148 165.144C185.428 164.227 186.974 163.768 188.788 163.768C190.601 163.768 192.137 164.227 193.396 165.144C194.676 166.061 195.646 167.405 196.308 169.176C196.969 170.947 197.3 173.112 197.3 175.672C197.3 178.189 196.969 180.333 196.308 182.104C195.646 183.875 194.676 185.219 193.396 186.136C192.137 187.053 190.601 187.512 188.788 187.512ZM188.788 183.928C189.748 183.928 190.558 183.629 191.22 183.032C191.881 182.435 192.372 181.528 192.692 180.312C193.033 179.075 193.204 177.528 193.204 175.672C193.204 173.816 193.033 172.269 192.692 171.032C192.372 169.795 191.881 168.877 191.22 168.28C190.558 167.661 189.748 167.352 188.788 167.352C187.828 167.352 187.017 167.661 186.356 168.28C185.694 168.877 185.193 169.795 184.852 171.032C184.532 172.269 184.372 173.816 184.372 175.672C184.372 177.528 184.532 179.075 184.852 180.312C185.193 181.528 185.694 182.435 186.356 183.032C187.017 183.629 187.828 183.928 188.788 183.928ZM206.663 184.056L203.079 169.144L203.559 169.08V187H199.847V164.28H204.647L208.583 180.088H207.367L211.303 164.28H216.103V187H212.391V169.08L212.871 169.144L209.287 184.056H206.663ZM219.995 187V164.28H226.779C229.296 164.28 231.216 164.813 232.539 165.88C233.861 166.925 234.523 168.44 234.523 170.424C234.523 171.341 234.309 172.173 233.883 172.92C233.477 173.645 232.859 174.232 232.027 174.68C231.216 175.107 230.213 175.352 229.019 175.416V175.192C230.469 175.235 231.664 175.491 232.603 175.96C233.563 176.429 234.277 177.08 234.747 177.912C235.237 178.723 235.483 179.661 235.483 180.728C235.483 182.755 234.789 184.312 233.403 185.4C232.016 186.467 230.053 187 227.515 187H219.995ZM223.931 183.416H227.515C228.837 183.395 229.808 183.128 230.427 182.616C231.067 182.083 231.387 181.347 231.387 180.408C231.387 179.405 231.056 178.627 230.395 178.072C229.755 177.517 228.795 177.24 227.515 177.24H223.931V183.416ZM223.931 173.72H226.779C228.037 173.72 228.955 173.464 229.531 172.952C230.128 172.44 230.427 171.715 230.427 170.776C230.427 169.837 230.128 169.123 229.531 168.632C228.955 168.12 228.037 167.864 226.779 167.864H223.931V173.72ZM237.422 187L243.886 164.28H248.814L255.278 187H251.214L246.35 168.76L241.486 187H237.422ZM241.39 181.624L242.478 178.072H250.222L251.31 181.624H241.39Z" fill="#2B303B"/>
</g>
<defs>
<clipPath id="clip0_333_13017">
<rect width="416" height="350" fill="white"/>
</clipPath>
</defs>
</svg>
