<svg width="416" height="350" viewBox="0 0 416 350" fill="none" xmlns="http://www.w3.org/2000/svg">
<g clip-path="url(#clip0_333_15809)">
<rect width="416" height="350" fill="#F2F5F8"/>
<g opacity="0.06">
<path d="M23.9727 -88V437.5" stroke="#2B303B"/>
<path d="M69.9839 -88V437.5" stroke="#2B303B"/>
<path d="M115.996 -88V437.5" stroke="#2B303B"/>
<path d="M162.007 -88V437.5" stroke="#2B303B"/>
<path d="M208.019 -88V437.5" stroke="#2B303B"/>
<path d="M254.03 -88V437.5" stroke="#2B303B"/>
<path d="M300.042 -88V437.5" stroke="#2B303B"/>
<path d="M346.053 -88V437.5" stroke="#2B303B"/>
<path d="M392.064 -88V437.5" stroke="#2B303B"/>
<path d="M471 27L-54.5 27" stroke="#2B303B"/>
<path d="M471 64L-54.5 64" stroke="#2B303B"/>
<path d="M471 101L-54.5 101" stroke="#2B303B"/>
<path d="M471 138L-54.5 138" stroke="#2B303B"/>
<path d="M471 175L-54.5 175" stroke="#2B303B"/>
<path d="M471 212L-54.5 212" stroke="#2B303B"/>
<path d="M471 249L-54.5 249" stroke="#2B303B"/>
<path d="M471 286L-54.5 286" stroke="#2B303B"/>
<path d="M471 323L-54.5 323" stroke="#2B303B"/>
</g>
<rect x="69" y="137" width="278" height="76" fill="#F2F5F8"/>
<path d="M102.324 187.512C100.66 187.512 99.2093 187.181 97.972 186.52C96.756 185.859 95.796 184.931 95.092 183.736C94.388 182.52 93.972 181.091 93.844 179.448L97.876 179.224C98.0253 180.269 98.292 181.144 98.676 181.848C99.0813 182.531 99.604 183.053 100.244 183.416C100.905 183.757 101.663 183.928 102.516 183.928C103.327 183.928 104.009 183.821 104.564 183.608C105.14 183.395 105.577 183.075 105.876 182.648C106.175 182.221 106.324 181.709 106.324 181.112C106.324 180.472 106.175 179.917 105.876 179.448C105.577 178.979 105.044 178.541 104.276 178.136C103.508 177.731 102.409 177.336 100.98 176.952C99.444 176.547 98.1853 176.077 97.204 175.544C96.2227 175.011 95.4973 174.349 95.028 173.56C94.5587 172.749 94.324 171.736 94.324 170.52C94.324 169.155 94.6227 167.971 95.22 166.968C95.8387 165.944 96.724 165.155 97.876 164.6C99.0493 164.045 100.447 163.768 102.068 163.768C103.668 163.768 105.033 164.077 106.164 164.696C107.295 165.293 108.18 166.157 108.82 167.288C109.481 168.397 109.887 169.72 110.036 171.256L105.972 171.448C105.865 170.616 105.641 169.901 105.3 169.304C104.98 168.685 104.532 168.205 103.956 167.864C103.401 167.523 102.719 167.352 101.908 167.352C100.82 167.352 99.956 167.629 99.316 168.184C98.676 168.717 98.356 169.421 98.356 170.296C98.356 170.915 98.4947 171.427 98.772 171.832C99.0707 172.237 99.572 172.6 100.276 172.92C100.98 173.24 101.972 173.56 103.252 173.88C105.023 174.349 106.42 174.904 107.444 175.544C108.489 176.184 109.236 176.952 109.684 177.848C110.132 178.744 110.356 179.8 110.356 181.016C110.356 182.317 110.025 183.459 109.364 184.44C108.703 185.421 107.775 186.179 106.58 186.712C105.385 187.245 103.967 187.512 102.324 187.512ZM114.12 187V183.352H119.304V167.928H114.12V164.28H128.456V167.928H123.272V183.352H128.456V187H114.12ZM133.307 187V164.28H138.971C141.04 164.28 142.822 164.728 144.315 165.624C145.83 166.499 146.982 167.789 147.771 169.496C148.582 171.181 148.987 173.24 148.987 175.672C148.987 178.104 148.582 180.163 147.771 181.848C146.982 183.533 145.83 184.813 144.315 185.688C142.822 186.563 141.04 187 138.971 187H133.307ZM137.243 183.352H138.971C140.87 183.352 142.331 182.712 143.355 181.432C144.379 180.152 144.891 178.232 144.891 175.672C144.891 173.091 144.379 171.16 143.355 169.88C142.331 168.579 140.87 167.928 138.971 167.928H137.243V183.352ZM152.815 187V164.28H166.895V167.928H156.783V173.848H166.51V177.368H156.783V183.352H167.151V187H152.815ZM173.602 179.384V175.928H184.098V179.384H173.602ZM191.062 187V164.28H198.262C199.819 164.28 201.195 164.579 202.39 165.176C203.584 165.773 204.512 166.605 205.174 167.672C205.835 168.739 206.166 170.008 206.166 171.48C206.166 172.931 205.835 174.189 205.174 175.256C204.512 176.323 203.584 177.155 202.39 177.752C201.195 178.328 199.819 178.616 198.262 178.616H195.03V187H191.062ZM195.03 175H197.845C199.275 175 200.331 174.701 201.014 174.104C201.718 173.485 202.07 172.611 202.07 171.48C202.07 170.307 201.718 169.421 201.014 168.824C200.331 168.227 199.275 167.928 197.845 167.928H195.03V175ZM209.673 187V164.28H216.873C219.305 164.28 221.214 164.888 222.601 166.104C223.988 167.32 224.681 168.984 224.681 171.096C224.681 172.184 224.436 173.144 223.945 173.976C223.476 174.808 222.846 175.469 222.057 175.96C221.268 176.429 220.404 176.696 219.465 176.76L219.337 176.344C220.98 176.408 222.206 176.771 223.017 177.432C223.828 178.072 224.297 179.128 224.425 180.6L224.969 187H221.001L220.521 181.528C220.457 180.717 220.297 180.088 220.041 179.64C219.806 179.192 219.433 178.883 218.921 178.712C218.43 178.541 217.748 178.456 216.873 178.456H213.641V187H209.673ZM213.641 174.808H216.777C218.014 174.808 218.953 174.509 219.593 173.912C220.254 173.315 220.585 172.461 220.585 171.352C220.585 170.243 220.254 169.4 219.593 168.824C218.953 168.227 218.014 167.928 216.777 167.928H213.641V174.808ZM236.413 187.512C234.599 187.512 233.053 187.053 231.773 186.136C230.514 185.219 229.554 183.875 228.893 182.104C228.231 180.333 227.901 178.189 227.901 175.672C227.901 173.112 228.231 170.947 228.893 169.176C229.554 167.405 230.514 166.061 231.773 165.144C233.053 164.227 234.599 163.768 236.413 163.768C238.226 163.768 239.762 164.227 241.021 165.144C242.301 166.061 243.271 167.405 243.933 169.176C244.594 170.947 244.925 173.112 244.925 175.672C244.925 178.189 244.594 180.333 243.933 182.104C243.271 183.875 242.301 185.219 241.021 186.136C239.762 187.053 238.226 187.512 236.413 187.512ZM236.413 183.928C237.373 183.928 238.183 183.629 238.845 183.032C239.506 182.435 239.997 181.528 240.317 180.312C240.658 179.075 240.829 177.528 240.829 175.672C240.829 173.816 240.658 172.269 240.317 171.032C239.997 169.795 239.506 168.877 238.845 168.28C238.183 167.661 237.373 167.352 236.413 167.352C235.453 167.352 234.642 167.661 233.981 168.28C233.319 168.877 232.818 169.795 232.477 171.032C232.157 172.269 231.997 173.816 231.997 175.672C231.997 177.528 232.157 179.075 232.477 180.312C232.818 181.528 233.319 182.435 233.981 183.032C234.642 183.629 235.453 183.928 236.413 183.928ZM254.832 187.512C253.275 187.512 251.92 187.181 250.768 186.52C249.637 185.859 248.763 184.909 248.144 183.672C247.525 182.413 247.195 180.92 247.152 179.192L251.088 178.936C251.152 180.643 251.483 181.901 252.08 182.712C252.677 183.523 253.595 183.928 254.832 183.928C256.069 183.928 256.987 183.544 257.584 182.776C258.181 182.008 258.48 180.813 258.48 179.192V164.28H262.448V179.192C262.448 181.816 261.776 183.864 260.432 185.336C259.088 186.787 257.221 187.512 254.832 187.512ZM267.94 187V164.28H282.02V167.928H271.908V173.848H281.635V177.368H271.908V183.352H282.276V187H267.94ZM294.103 187.512C292.247 187.512 290.679 187.032 289.399 186.072C288.119 185.112 287.138 183.747 286.455 181.976C285.794 180.205 285.463 178.104 285.463 175.672C285.463 173.219 285.794 171.107 286.455 169.336C287.138 167.565 288.119 166.2 289.399 165.24C290.679 164.259 292.247 163.768 294.103 163.768C296.236 163.768 298.018 164.472 299.447 165.88C300.876 167.288 301.794 169.283 302.199 171.864L298.135 172.056C297.858 170.52 297.356 169.357 296.631 168.568C295.927 167.757 295.084 167.352 294.103 167.352C293.1 167.352 292.258 167.683 291.575 168.344C290.914 168.984 290.412 169.923 290.071 171.16C289.73 172.397 289.559 173.901 289.559 175.672C289.559 177.421 289.73 178.915 290.071 180.152C290.412 181.389 290.914 182.328 291.575 182.968C292.258 183.608 293.1 183.928 294.103 183.928C295.127 183.928 296.012 183.501 296.759 182.648C297.506 181.773 298.007 180.504 298.263 178.84L302.327 179C301.943 181.688 301.026 183.779 299.575 185.272C298.146 186.765 296.322 187.512 294.103 187.512ZM311.179 187V167.928H304.843V164.28H321.483V167.928H315.147V187H311.179Z" fill="#2B303B"/>
</g>
<defs>
<clipPath id="clip0_333_15809">
<rect width="416" height="350" fill="white"/>
</clipPath>
</defs>
</svg>
